<svg id="visual" viewBox="0 0 900 600" width="900" height="600" xmlns="http://www.w3.org/2000/svg" xmlns:xlink="http://www.w3.org/1999/xlink" version="1.1"><path d="M0 121L13.7 126C27.3 131 54.7 141 82 149C109.3 157 136.7 163 163.8 148C191 133 218 97 245.2 83C272.3 69 299.7 77 327 86C354.3 95 381.7 105 409 108C436.3 111 463.7 107 491 107C518.3 107 545.7 111 573 104C600.3 97 627.7 79 654.8 70C682 61 709 61 736.2 66C763.3 71 790.7 81 818 88C845.3 95 872.7 99 886.3 101L900 103L900 0L886.3 0C872.7 0 845.3 0 818 0C790.7 0 763.3 0 736.2 0C709 0 682 0 654.8 0C627.7 0 600.3 0 573 0C545.7 0 518.3 0 491 0C463.7 0 436.3 0 409 0C381.7 0 354.3 0 327 0C299.7 0 272.3 0 245.2 0C218 0 191 0 163.8 0C136.7 0 109.3 0 82 0C54.7 0 27.3 0 13.7 0L0 0Z" fill="#004cbb"></path><path d="M0 343L13.7 334C27.3 325 54.7 307 82 292C109.3 277 136.7 265 163.8 267C191 269 218 285 245.2 286C272.3 287 299.7 273 327 257C354.3 241 381.7 223 409 236C436.3 249 463.7 293 491 313C518.3 333 545.7 329 573 325C600.3 321 627.7 317 654.8 311C682 305 709 297 736.2 276C763.3 255 790.7 221 818 205C845.3 189 872.7 191 886.3 192L900 193L900 101L886.3 99C872.7 97 845.3 93 818 86C790.7 79 763.3 69 736.2 64C709 59 682 59 654.8 68C627.7 77 600.3 95 573 102C545.7 109 518.3 105 491 105C463.7 105 436.3 109 409 106C381.7 103 354.3 93 327 84C299.7 75 272.3 67 245.2 81C218 95 191 131 163.8 146C136.7 161 109.3 155 82 147C54.7 139 27.3 129 13.7 124L0 119Z" fill="#0059dd"></path><path d="M0 421L13.7 423C27.3 425 54.7 429 82 439C109.3 449 136.7 465 163.8 461C191 457 218 433 245.2 421C272.3 409 299.7 409 327 412C354.3 415 381.7 421 409 433C436.3 445 463.7 463 491 468C518.3 473 545.7 465 573 452C600.3 439 627.7 421 654.8 423C682 425 709 447 736.2 448C763.3 449 790.7 429 818 416C845.3 403 872.7 397 886.3 394L900 391L900 191L886.3 190C872.7 189 845.3 187 818 203C790.7 219 763.3 253 736.2 274C709 295 682 303 654.8 309C627.7 315 600.3 319 573 323C545.7 327 518.3 331 491 311C463.7 291 436.3 247 409 234C381.7 221 354.3 239 327 255C299.7 271 272.3 285 245.2 284C218 283 191 267 163.8 265C136.7 263 109.3 275 82 290C54.7 305 27.3 323 13.7 332L0 341Z" fill="#0066ff"></path><path d="M0 517L13.7 521C27.3 525 54.7 533 82 538C109.3 543 136.7 545 163.8 539C191 533 218 519 245.2 517C272.3 515 299.7 525 327 528C354.3 531 381.7 527 409 532C436.3 537 463.7 551 491 558C518.3 565 545.7 565 573 557C600.3 549 627.7 533 654.8 529C682 525 709 533 736.2 530C763.3 527 790.7 513 818 506C845.3 499 872.7 499 886.3 499L900 499L900 389L886.3 392C872.7 395 845.3 401 818 414C790.7 427 763.3 447 736.2 446C709 445 682 423 654.8 421C627.7 419 600.3 437 573 450C545.7 463 518.3 471 491 466C463.7 461 436.3 443 409 431C381.7 419 354.3 413 327 410C299.7 407 272.3 407 245.2 419C218 431 191 455 163.8 459C136.7 463 109.3 447 82 437C54.7 427 27.3 423 13.7 421L0 419Z" fill="#3c80ff"></path><path d="M0 601L13.7 601C27.3 601 54.7 601 82 601C109.3 601 136.7 601 163.8 601C191 601 218 601 245.2 601C272.3 601 299.7 601 327 601C354.3 601 381.7 601 409 601C436.3 601 463.7 601 491 601C518.3 601 545.7 601 573 601C600.3 601 627.7 601 654.8 601C682 601 709 601 736.2 601C763.3 601 790.7 601 818 601C845.3 601 872.7 601 886.3 601L900 601L900 497L886.3 497C872.7 497 845.3 497 818 504C790.7 511 763.3 525 736.2 528C709 531 682 523 654.8 527C627.7 531 600.3 547 573 555C545.7 563 518.3 563 491 556C463.7 549 436.3 535 409 530C381.7 525 354.3 529 327 526C299.7 523 272.3 513 245.2 515C218 517 191 531 163.8 537C136.7 543 109.3 541 82 536C54.7 531 27.3 523 13.7 519L0 515Z" fill="#6198ff"></path></svg>