<svg id="visual" viewBox="0 0 900 600" width="900" height="600" xmlns="http://www.w3.org/2000/svg" xmlns:xlink="http://www.w3.org/1999/xlink" version="1.1"><path d="M0 97L13.7 92C27.3 87 54.7 77 82 71C109.3 65 136.7 63 163.8 69C191 75 218 89 245.2 94C272.3 99 299.7 95 327 90C354.3 85 381.7 79 409 72C436.3 65 463.7 57 491 62C518.3 67 545.7 85 573 83C600.3 81 627.7 59 654.8 54C682 49 709 61 736.2 71C763.3 81 790.7 89 818 83C845.3 77 872.7 57 886.3 47L900 37L900 0L886.3 0C872.7 0 845.3 0 818 0C790.7 0 763.3 0 736.2 0C709 0 682 0 654.8 0C627.7 0 600.3 0 573 0C545.7 0 518.3 0 491 0C463.7 0 436.3 0 409 0C381.7 0 354.3 0 327 0C299.7 0 272.3 0 245.2 0C218 0 191 0 163.8 0C136.7 0 109.3 0 82 0C54.7 0 27.3 0 13.7 0L0 0Z" fill="#004cbb"></path><path d="M0 229L13.7 223C27.3 217 54.7 205 82 191C109.3 177 136.7 161 163.8 155C191 149 218 153 245.2 164C272.3 175 299.7 193 327 195C354.3 197 381.7 183 409 169C436.3 155 463.7 141 491 144C518.3 147 545.7 167 573 168C600.3 169 627.7 151 654.8 149C682 147 709 161 736.2 178C763.3 195 790.7 215 818 204C845.3 193 872.7 151 886.3 130L900 109L900 35L886.3 45C872.7 55 845.3 75 818 81C790.7 87 763.3 79 736.2 69C709 59 682 47 654.8 52C627.7 57 600.3 79 573 81C545.7 83 518.3 65 491 60C463.7 55 436.3 63 409 70C381.7 77 354.3 83 327 88C299.7 93 272.3 97 245.2 92C218 87 191 73 163.8 67C136.7 61 109.3 63 82 69C54.7 75 27.3 85 13.7 90L0 95Z" fill="#0059dd"></path><path d="M0 283L13.7 280C27.3 277 54.7 271 82 268C109.3 265 136.7 265 163.8 261C191 257 218 249 245.2 250C272.3 251 299.7 261 327 268C354.3 275 381.7 279 409 265C436.3 251 463.7 219 491 211C518.3 203 545.7 219 573 221C600.3 223 627.7 211 654.8 214C682 217 709 235 736.2 254C763.3 273 790.7 293 818 285C845.3 277 872.7 241 886.3 223L900 205L900 107L886.3 128C872.7 149 845.3 191 818 202C790.7 213 763.3 193 736.2 176C709 159 682 145 654.8 147C627.7 149 600.3 167 573 166C545.7 165 518.3 145 491 142C463.7 139 436.3 153 409 167C381.7 181 354.3 195 327 193C299.7 191 272.3 173 245.2 162C218 151 191 147 163.8 153C136.7 159 109.3 175 82 189C54.7 203 27.3 215 13.7 221L0 227Z" fill="#0066ff"></path><path d="M0 391L13.7 410C27.3 429 54.7 467 82 473C109.3 479 136.7 453 163.8 443C191 433 218 439 245.2 436C272.3 433 299.7 421 327 421C354.3 421 381.7 433 409 442C436.3 451 463.7 457 491 460C518.3 463 545.7 463 573 441C600.3 419 627.7 375 654.8 365C682 355 709 379 736.2 405C763.3 431 790.7 459 818 468C845.3 477 872.7 467 886.3 462L900 457L900 203L886.3 221C872.7 239 845.3 275 818 283C790.7 291 763.3 271 736.2 252C709 233 682 215 654.8 212C627.7 209 600.3 221 573 219C545.7 217 518.3 201 491 209C463.7 217 436.3 249 409 263C381.7 277 354.3 273 327 266C299.7 259 272.3 249 245.2 248C218 247 191 255 163.8 259C136.7 263 109.3 263 82 266C54.7 269 27.3 275 13.7 278L0 281Z" fill="#3c80ff"></path><path d="M0 601L13.7 601C27.3 601 54.7 601 82 601C109.3 601 136.7 601 163.8 601C191 601 218 601 245.2 601C272.3 601 299.7 601 327 601C354.3 601 381.7 601 409 601C436.3 601 463.7 601 491 601C518.3 601 545.7 601 573 601C600.3 601 627.7 601 654.8 601C682 601 709 601 736.2 601C763.3 601 790.7 601 818 601C845.3 601 872.7 601 886.3 601L900 601L900 455L886.3 460C872.7 465 845.3 475 818 466C790.7 457 763.3 429 736.2 403C709 377 682 353 654.8 363C627.7 373 600.3 417 573 439C545.7 461 518.3 461 491 458C463.7 455 436.3 449 409 440C381.7 431 354.3 419 327 419C299.7 419 272.3 431 245.2 434C218 437 191 431 163.8 441C136.7 451 109.3 477 82 471C54.7 465 27.3 427 13.7 408L0 389Z" fill="#6198ff"></path></svg>